<svg width="48" height="49" viewBox="0 0 48 49" fill="none" xmlns="http://www.w3.org/2000/svg">
    <circle cx="24" cy="24.502" r="24" fill="#E1F4F9" />
    <circle cx="24" cy="24.502" r="20" stroke="white" />
    <path
        d="M22.3315 30.6081V26.4414H25.6648V30.6081C25.6648 31.0664 26.0398 31.4414 26.4981 31.4414H28.9981C29.4565 31.4414 29.8315 31.0664 29.8315 30.6081V24.7748H31.2481C31.6315 24.7748 31.8148 24.2998 31.5231 24.0498L24.5565 17.7748C24.2398 17.4914 23.7565 17.4914 23.4398 17.7748L16.4731 24.0498C16.1898 24.2998 16.3648 24.7748 16.7481 24.7748H18.1648V30.6081C18.1648 31.0664 18.5398 31.4414 18.9981 31.4414H21.4981C21.9565 31.4414 22.3315 31.0664 22.3315 30.6081Z"
        fill="#0BA2D0" />
</svg>