<svg width="12" height="13" viewBox="0 0 12 13" fill="none" xmlns="http://www.w3.org/2000/svg">
    <path fill-rule="evenodd" clip-rule="evenodd"
        d="M6 1.50195C3.24 1.50195 1 3.74195 1 6.50195C1 9.26195 3.24 11.502 6 11.502C8.76 11.502 11 9.26195 11 6.50195C11 3.74195 8.76 1.50195 6 1.50195ZM6 9.00195C5.725 9.00195 5.5 8.77695 5.5 8.50195V6.50195C5.5 6.22695 5.725 6.00195 6 6.00195C6.275 6.00195 6.5 6.22695 6.5 6.50195V8.50195C6.5 8.77695 6.275 9.00195 6 9.00195ZM5.5 5.00195H6.5V4.00195H5.5V5.00195Z"
        fill="#4C85FF" />
</svg>